<?xml version="1.0" encoding="utf-8"?>
<!-- Generator: Adobe Illustrator 24.3.0, SVG Export Plug-In . SVG Version: 6.00 Build 0)  -->
<svg version="1.1" id="Layer_1" xmlns="http://www.w3.org/2000/svg" xmlns:xlink="http://www.w3.org/1999/xlink" x="0px" y="0px"
	 viewBox="0 0 1500 450" style="enable-background:new 0 0 1500 450;" xml:space="preserve">
<style type="text/css">
	.st0{fill:#21211F;}
	.st1{fill:#FFFFFF;}
</style>
<g>
	<path class="st0" d="M155,54.7L185.1,21c11-12.3,30.2-12.8,41.8-1l47.5,48.2l108.6,113c20.6,21.5,20.3,55.5-0.8,76.6l-71.4,71.4
		l-31.4-23.1l51.5-54c3.4-3.5,6.3-7.4,8.7-11.7c6-10.6,13.9-30.4,5.3-51.6c-1.4-3.6-3.4-6.9-5.7-9.9c-10.6-14.1-50.2-65.5-92.5-100
		c0,0-37.5-34.3-67.3,4.8L155,54.7z"/>
	<path class="st0" d="M236.4,262.1l30.1,30.5l34.3-37c0,0,26.9-27.1,18.1-64.9c0,0-15.1-36.2-64.7-78.2c-1.3-1.1-2.7-2.3-4-3.4
		c-6.2-5.6-32.7-26.8-60.4-10.7l58.8,72c0,0,2.8,2.3,6.1,6.8c12.7,17,13,40.2,1.5,58C252,241.7,245.5,251,236.4,262.1z"/>
	<path class="st0" d="M237.2,227.4L121,107.3c-9.3-9.6-24.6-9.8-34.1-0.5c-10.8,10.5-23.6,23.4-28.8,30.4L59,97
		c0.4-19.2,11-37,28.1-45.7c0.3-0.2,0.6-0.3,0.9-0.5c9.3-4.5,19.8-6,30-4c7.2,1.5,15.7,4.5,22.7,10.7l85.7,102.9
		c6.8,8.2,11.3,18,12.8,28.5c0,0.2,0,0.3,0.1,0.5c1.1,8.3,1,16.8-0.2,25.1L237.2,227.4z"/>
	<path class="st0" d="M175.2,212.4l116,118.8c9.3,9.5,24.6,9.8,34.2,0.6c10.8-10.3,23.6-23,28.9-30l-0.9,39.6
		c-0.5,18.9-11.1,36.5-28.2,45.1c-0.3,0.1-0.6,0.3-0.9,0.4c-9.3,4.5-21.6,5.9-31.7,3.9c-7.2-1.5-15.7-4.5-22.7-10.6l-85.6-101.8
		c-6.8-8.1-11.3-17.8-12.8-28.2c0-0.2,0-0.3-0.1-0.5c-1.1-8.2,0.8-16.6,2-24.8L175.2,212.4z"/>
	<path class="st0" d="M144.8,148.9l33,32.5c0,0-20.2,14.5-29,39c-4.4,12.1-3.4,25.5,2.8,36.8c4.1,7.5,10.8,17,21.6,28.3
		c1.5,1.5,2.9,3.1,4.3,4.7l46.6,53.5c0,0-23.8,19.2-61.6-7.5c-6-4.2-11.4-9.1-16.4-14.5l-34.2-36.4c-0.6-0.6-1.2-1.3-1.8-1.9
		c-5.1-5.2-34.9-37.8-12.4-77.5c0.6-1.1,1.3-2.2,1.9-3.2C102,198.3,113.7,179.1,144.8,148.9z"/>
	<path class="st0" d="M132.6,135.8c0,0-27.6,25.3-58.3,63.2c-0.5,0.7-1.1,1.3-1.6,1.9c-2.7,3-12.7,16.1-9.5,38.2
		c1.2,8.5,4.4,16.5,8.7,23.9c8.5,14.4,29.4,44.6,74.7,86.3c1.2,1.1,2.4,2.3,3.6,3.4c6.2,6,37.1,34.2,63.1,22.3
		c0,0,8.5-3.5,21.8-18.1l23.9,29.3l-36.8,35.4c-11.8,11.3-30.5,11-41.8-0.8L28.5,262.1c-17.9-19.1-21.2-48-7.3-70.2
		c5.4-8.7,12.3-17.3,21-24.4l62.5-59.3L132.6,135.8z"/>
	<g>
		<path class="st0" d="M552.4,256.8l1.6,1.1l-1.2,1.5c-4,4.9-8.9,8.9-14.7,12.1c-7.7,4.2-16.5,6.4-26,6.4c-0.4,0-0.8,0-1.2,0
			c-9.3,0-18-2.3-25.9-6.9c-8.1-4.8-14.6-11.4-19.2-19.7c-4.6-8.3-6.8-17.5-6.7-27.4c-0.1-10,2.1-19.3,6.7-27.6
			c4.6-8.3,11.1-14.9,19.2-19.6c7.8-4.6,16.6-6.9,25.9-6.9c0.4,0,0.7,0,1,0c9.4,0,18.1,2.2,25.9,6.4c6.4,3.5,11.9,8.2,16.2,13.8
			l1,1.3l-1.2,1.1l-13.4,12.5l-0.1,0.1l-0.2,0.1l-0.6,0.4l-1.5,0.9l-0.9-1.5c-2.6-4.3-6.2-7.6-10.5-10c-4.3-2.3-9.3-3.5-14.7-3.5
			c-8.9,0-16,3-21.7,9.2c-5.7,6.2-8.5,14-8.5,23.3c0,9.3,2.9,17.1,8.5,23.3c5.7,6.2,12.8,9.2,21.7,9.2c5.3,0,10.2-1.2,14.5-3.6
			c3-1.6,5.6-3.7,7.9-6.3l1-1.1l1.3,0.9L552.4,256.8z"/>
	</g>
	<g>
		<path class="st0" d="M642.6,232.4v43.2h-22.6v-41.9c0-5.8-1.3-10.1-3.8-13c-2.5-2.8-6.2-4.2-11.3-4.2c-5.1,0-9.2,1.7-12.4,5.2
			c-3.3,3.5-4.9,8-4.9,13.8v40.1h-22.5v-113h22.5v43c1.9-2.1,4.3-3.9,7-5.3c4.4-2.3,9.4-3.6,14.9-3.6c10.3,0,18.5,3.2,24.4,9.5
			C639.6,212.5,642.6,221.3,642.6,232.4z"/>
	</g>
	<g>
		<path class="st0" d="M728.9,206.4c-7.7-7.4-17.6-11.2-29.4-11.2c-5.7,0-11.2,1.1-16.3,3.2c-5.1,2.1-9.5,5.1-13,8.8
			c-3.6,3.7-6.5,8.1-8.5,13.3c-2.1,5.1-3.1,10.7-3.1,16.5c0,7.8,1.8,14.9,5.5,21.2c3.7,6.3,8.9,11.4,15.5,15
			c6.6,3.6,14.1,5.4,22.4,5.4c7.5,0,14.6-1.6,21-4.7c6.5-3.1,11.5-7.4,15-12.7l1-1.5l-1.5-0.9l-14.8-9.4l-1.4-0.9l-0.9,1.4
			c-1.7,2.6-4.2,4.7-7.5,6.3c-3.3,1.6-7,2.4-10.8,2.4c-5.5,0-10.2-1.4-14-4.1c-3.2-2.3-5.4-5.3-6.6-9.3h58.9l0.1-1.7
			c0.2-4.4,0.3-7.2,0.3-8.5C740.5,223.5,736.6,213.8,728.9,206.4z M681.3,228.3c1.2-3.9,3.2-7,6.1-9.3c3.5-2.7,7.5-4.1,12.3-4.1
			c5.4,0,9.8,1.4,13.2,4.2c2.9,2.4,4.7,5.4,5.4,9.2H681.3z"/>
	</g>
	<g>
		<path class="st0" d="M828.9,257.3l1.6,0.9l-1,1.5c-3.6,5.6-8.5,10-14.5,13.2c-6.1,3.2-12.9,4.8-20.2,4.8h-0.6
			c-7.4,0-14.3-1.8-20.5-5.3c-6.4-3.6-11.5-8.6-15.1-14.9c-3.7-6.3-5.4-13.3-5.3-20.8c-0.1-7.5,1.6-14.5,5.3-20.9
			c3.6-6.3,8.7-11.4,15.1-14.9c6.2-3.5,13.1-5.3,20.5-5.3h0.6c7.3,0,14.1,1.6,20.2,4.8c6.1,3.2,11,7.6,14.5,13.3l1,1.5l-1.6,0.9
			l-15.4,8.8l-1.4,0.8l-0.9-1.3c-1.8-2.6-4.2-4.8-7-6.3c-2.8-1.5-6-2.3-9.5-2.3c-5.8,0-10.5,1.9-14.2,5.9c-3.8,4-5.6,8.9-5.6,15
			c0,6.1,1.8,10.9,5.5,14.9c3.7,3.9,8.4,5.8,14.3,5.8c3.6,0,6.8-0.7,9.7-2.2c2.8-1.4,5.1-3.6,6.8-6.3l0.9-1.4l1.5,0.9L828.9,257.3z"
			/>
	</g>
	<g>
		<rect x="937.3" y="171.7" class="st0" width="22.1" height="106"/>
		<path class="st0" d="M1058.1,255.1v20.8h-79.6v-18.3l0.6-0.5l38.3-35.6c5-5.2,8.6-9.3,10.7-12.5c1.9-2.9,2.9-6,2.9-8.9
			c0-3.7-1.3-6.6-3.8-8.9c-2.6-2.3-6.2-3.5-10.6-3.5c-3.8,0-7.3,1.1-10.5,3.3c-3.2,2.2-5.8,5.1-7.7,8.7l-0.8,1.6l-1.5-0.9l-16.1-9.1
			l-1.4-0.8l0.8-1.5c3.6-6.9,8.7-12.4,15.2-16.4c6.5-4,14.1-6,22.5-6c10.7,0,19.6,3.1,26.4,9.1c6.9,6.1,10.4,14.1,10.4,23.6
			c0,5.8-1.5,11.4-4.6,16.8c-2.9,5-7.9,10.9-14.8,17.8l-21.3,21.3H1058.1z"/>
	</g>
	<g>
		<path class="st0" d="M1151.5,181.7c-8.1-6.6-19.4-10-33.4-10h-38.3v104.2h23.2v-31.4h15.1c14.1,0,25.3-3.4,33.4-10
			c8.2-6.7,12.4-15.6,12.4-26.4C1163.9,197.3,1159.8,188.4,1151.5,181.7z M1118.3,224h-15.2v-31.6h15.2c15.2,0,22.6,5.1,22.6,15.7
			C1140.9,218.8,1133.5,224,1118.3,224z"/>
	</g>
	<path class="st0" d="M1178,272.6c-2.3-2.3-3.5-5.1-3.5-8.4c0-3.3,1.2-6.1,3.5-8.4c2.3-2.3,5.2-3.4,8.7-3.4c3.5,0,6.4,1.1,8.8,3.4
		c2.4,2.3,3.5,5.1,3.5,8.4c0,3.3-1.2,6.1-3.5,8.4c-2.4,2.3-5.3,3.4-8.8,3.4C1183.2,276.1,1180.3,274.9,1178,272.6z"/>
	<g>
		<path class="st0" d="M1277.8,258.9l-0.7,1.1c-3.2,5-7.7,9-13.2,12c-5.5,2.9-11.6,4.4-18.3,4.4h-0.5c-6.7,0-12.9-1.6-18.6-4.8
			c-5.8-3.3-10.4-7.8-13.7-13.5c-3.3-5.7-4.9-12-4.8-18.8c-0.1-6.8,1.5-13.2,4.8-18.9c3.3-5.7,7.9-10.3,13.7-13.5
			c5.6-3.2,11.9-4.8,18.6-4.8h0.5c6.6,0,12.8,1.5,18.3,4.3c5.5,2.9,9.9,6.9,13.1,12l0.7,1.2l-1.2,0.7l-14,8l-1,0.6l-0.7-1
			c-1.7-2.5-3.9-4.4-6.5-5.8c-2.6-1.4-5.6-2.1-8.8-2.1c-5.4,0-9.7,1.8-13.2,5.5c-3.4,3.7-5.2,8.3-5.2,13.9c0,5.5,1.7,10.2,5.1,13.8
			c3.4,3.6,7.7,5.4,13.3,5.4c3.3,0,6.3-0.7,8.9-2.1c2.6-1.3,4.7-3.3,6.3-5.8l0.7-1.1l1.1,0.6l14,8.1L1277.8,258.9z"/>
	</g>
	<g>
		<path class="st0" d="M1352.6,220.3c-3.2-5.6-7.7-10.1-13.4-13.4c-5.7-3.2-12.2-4.9-19.2-4.9h-0.5c-6.7,0-12.9,1.6-18.6,4.8
			c-5.8,3.3-10.4,7.8-13.7,13.5c-3.3,5.7-4.9,12.1-4.8,18.9c-0.1,6.8,1.5,13.1,4.8,18.8c3.3,5.7,7.9,10.3,13.7,13.5
			c5.6,3.2,11.9,4.8,18.6,4.8h0.5c5.3,0,10.3-1,14.9-2.9c4.6-1.9,8.6-4.5,11.9-7.8c3.3-3.3,5.9-7.2,7.8-11.8
			c1.9-4.6,2.8-9.5,2.8-14.7C1357.4,232.3,1355.8,226,1352.6,220.3z M1319.9,258.4c-5.5,0-9.9-1.8-13.3-5.4
			c-3.4-3.6-5.1-8.2-5.1-13.8c0-5.5,1.7-10.2,5.2-13.9c3.5-3.7,7.8-5.5,13.2-5.5c5.5,0,9.8,1.8,13.3,5.5c3.4,3.7,5.2,8.3,5.2,13.9
			c0,5.4-1.7,10.1-5.2,13.8C1329.7,256.6,1325.4,258.4,1319.9,258.4z"/>
	</g>
	<g>
		<path class="st0" d="M1486,234.8v39.8h-19.9V236c0-5.4-1.1-9.5-3.2-12.3c-2.1-2.7-5-4-9-4c-4.1,0-7.4,1.6-10.1,4.9
			c-2.7,3.4-4.1,7.7-4.1,13v36.9h-19.9V236c0-5.4-1.1-9.5-3.2-12.3c-2.1-2.7-5-4-9-4c-4.2,0-7.5,1.6-10.2,4.9
			c-2.7,3.4-4.1,7.8-4.1,13v36.9h-19.9v-70.7h19.9v6.6c1.7-2,3.7-3.8,6-5.2c3.7-2.2,7.8-3.3,12.3-3.3c5.5,0,10.3,1.2,14.4,3.6
			c3.5,2,6.4,4.9,8.6,8.4c2.3-3.4,5.2-6.2,8.7-8.3c4.1-2.5,9-3.7,14.4-3.7c8.8,0,15.8,3,20.8,8.8
			C1483.5,216.7,1486,224.7,1486,234.8z"/>
	</g>
	<polygon class="st0" points="842.3,162.5 842.3,276.1 866.3,276.1 866.3,255.7 876.9,245.3 897.8,277.8 925.4,277.8 893.4,227.4 
		923.6,194.4 894.8,194.8 866.7,226.4 866.9,162.5 	"/>
</g>
</svg>
